# xmcd CD database file
#
# Track frame offsets:
#	183
#	13608
#	27240
#	42013
#	56170
#	69110
#	84783
#	99470
#	114828
#	129183
#	142938
#	157658
#	172408
#	187478
#	203440
#	217838
#
# Disc length: 3068 seconds
#
# Revision: 2
# Processed by: cddbd v1.5.1PL0 Copyright (c) Steve Scherf et al.
# Submitted via: CDex 1.60beta1
#
DISCID=c50bfa10
DTITLE=Billie Holiday - Lady Day
DYEAR=1900
DGENRE=
TTITLE0=I'll Get By
TTITLE1=My Old Flame
TTITLE2=Embraceable You
TTITLE3=Billie's Blues (I Love My Man)
TTITLE4=I Gotta Right To Sing The Blues
TTITLE5=I Cover The Waterfront
TTITLE6=He's Funny That Way
TTITLE7=Yesterdays
TTITLE8=Strange Fruit
TTITLE9=On The Sunny Side of The Street
TTITLE10=I'm Yours
TTITLE11=Fine And Mellow
TTITLE12=Lover Come Back To Me
TTITLE13=I'll Be Seeing You
TTITLE14=As Time Goes By
TTITLE15=How Am I To Know
EXTD=
EXTT0=
EXTT1=
EXTT2=
EXTT3=
EXTT4=
EXTT5=
EXTT6=
EXTT7=
EXTT8=
EXTT9=
EXTT10=
EXTT11=
EXTT12=
EXTT13=
EXTT14=
EXTT15=
PLAYORDER=
